<?xml version="1.0" standalone="no"?>
<!DOCTYPE svg PUBLIC "-//W3C//DTD SVG 1.1//EN"
"http://www.w3.org/Graphics/SVG/1.1/DTD/svg11.dtd">

<svg width="440" height="363" view_box="0 0 440 363"
xmlns="http://www.w3.org/2000/svg"
xmlns:link="http://www.w3.org/1999/xlink">\n\n<desc>Généré par Mocodo 2.3.7 le Thu, 12 Nov 2020 08:21:20</desc>

<rect id="frame" x="0" y="0" width="440" height="363" fill="#f7f7f7" stroke="none" stroke-width="0"/>

<!-- Association destiner -->
<line x1="158" y1="177" x2="41" y2="177" stroke="#d6604d" stroke-width="2"/>
<text x="79" y="194.0" fill="#2166ac" font-family="Verdana" font-size="12">1,1</text>
<line x1="41" y1="68" x2="41" y2="177" stroke="#d6604d" stroke-width="2"/>
<text x="46.0" y="144" fill="#2166ac" font-family="Verdana" font-size="12">1,n</text>
<g id="association-destiner">
	<path d="M 59 152 a 14 14 90 0 1 14 14 V 177 h -64 V 166 a 14 14 90 0 1 14 -14" fill="#f4a582" stroke="#f4a582" stroke-width="0"/>
	<path d="M 73 177.0 v 11 a 14 14 90 0 1 -14 14 H 23 a 14 14 90 0 1 -14 -14 V 177.0 H 64" fill="#fddbc7" stroke="#fddbc7" stroke-width="0"/>
	<rect x="9" y="152" width="64" height="50" fill="none" rx="14" stroke="#d6604d" stroke-width="2"/>
	<line x1="9" y1="177" x2="73" y2="177" stroke="#d6604d" stroke-width="1"/>
	<text x="16" y="169.7" fill="#000000" font-family="Verdana" font-size="12">destiner</text>
</g>

<!-- Association passer -->
<line x1="158" y1="177" x2="158" y2="303" stroke="#d6604d" stroke-width="2"/>
<text x="163.0" y="236" fill="#2166ac" font-family="Verdana" font-size="12">1,1</text>
<line x1="41" y1="303" x2="158" y2="303" stroke="#d6604d" stroke-width="2"/>
<text x="75" y="320.0" fill="#2166ac" font-family="Verdana" font-size="12">0,1</text>
<g id="association-passer">
	<path d="M 171 278 a 14 14 90 0 1 14 14 V 303 h -54 V 292 a 14 14 90 0 1 14 -14" fill="#f4a582" stroke="#f4a582" stroke-width="0"/>
	<path d="M 185 303.0 v 11 a 14 14 90 0 1 -14 14 H 145 a 14 14 90 0 1 -14 -14 V 303.0 H 54" fill="#fddbc7" stroke="#fddbc7" stroke-width="0"/>
	<rect x="131" y="278" width="54" height="50" fill="none" rx="14" stroke="#d6604d" stroke-width="2"/>
	<line x1="131" y1="303" x2="185" y2="303" stroke="#d6604d" stroke-width="1"/>
	<text x="138" y="295.7" fill="#000000" font-family="Verdana" font-size="12">passer</text>
</g>

<!-- Association contenir -->
<path d="M271 68 C 236.0 101.333333333 198.333333333 101.333333333 158 68" fill="none" stroke="#d6604d" stroke-width="2"/>
<text x="206" y="83.0" fill="#2166ac" font-family="Verdana" font-size="12">0,n</text>
<path d="M271 68 C 236.0 34.6666666667 198.333333333 34.6666666667 158 68" fill="none" stroke="#d6604d" stroke-width="2"/>
<text x="206" y="62.0" fill="#2166ac" font-family="Verdana" font-size="12">0,1</text>
<g id="association-contenir">
	<path d="M 176 43 a 14 14 90 0 1 14 14 V 68 h -64 V 57 a 14 14 90 0 1 14 -14" fill="#f4a582" stroke="#f4a582" stroke-width="0"/>
	<path d="M 190 68.0 v 11 a 14 14 90 0 1 -14 14 H 140 a 14 14 90 0 1 -14 -14 V 68.0 H 64" fill="#fddbc7" stroke="#fddbc7" stroke-width="0"/>
	<rect x="126" y="43" width="64" height="50" fill="none" rx="14" stroke="#d6604d" stroke-width="2"/>
	<line x1="126" y1="68" x2="190" y2="68" stroke="#d6604d" stroke-width="1"/>
	<text x="133" y="60.7" fill="#000000" font-family="Verdana" font-size="12">contenir</text>
</g>

<!-- Association appartenir -->
<line x1="392" y1="177" x2="392" y2="68" stroke="#d6604d" stroke-width="2"/>
<text x="397.0" y="110" fill="#2166ac" font-family="Verdana" font-size="12">0,1</text>
<line x1="271" y1="68" x2="392" y2="68" stroke="#d6604d" stroke-width="2"/>
<text x="315" y="85.0" fill="#2166ac" font-family="Verdana" font-size="12">0,n</text>
<g id="association-appartenir">
	<path d="M 417 43 a 14 14 90 0 1 14 14 V 68 h -78 V 57 a 14 14 90 0 1 14 -14" fill="#f4a582" stroke="#f4a582" stroke-width="0"/>
	<path d="M 431 68.0 v 11 a 14 14 90 0 1 -14 14 H 367 a 14 14 90 0 1 -14 -14 V 68.0 H 78" fill="#fddbc7" stroke="#fddbc7" stroke-width="0"/>
	<rect x="353" y="43" width="78" height="50" fill="none" rx="14" stroke="#d6604d" stroke-width="2"/>
	<line x1="353" y1="68" x2="431" y2="68" stroke="#d6604d" stroke-width="1"/>
	<text x="360" y="60.7" fill="#000000" font-family="Verdana" font-size="12">appartenir</text>
</g>

<!-- Association inclure -->
<line x1="271" y1="303" x2="271" y2="177" stroke="#d6604d" stroke-width="2"/>
<text x="276.0" y="253" fill="#2166ac" font-family="Verdana" font-size="12">1,1</text>
<line x1="158" y1="177" x2="271" y2="177" stroke="#d6604d" stroke-width="2"/>
<text x="216" y="194.0" fill="#2166ac" font-family="Verdana" font-size="12">1,n</text>
<g id="association-inclure">
	<path d="M 285 152 a 14 14 90 0 1 14 14 V 177 h -56 V 166 a 14 14 90 0 1 14 -14" fill="#f4a582" stroke="#f4a582" stroke-width="0"/>
	<path d="M 299 177.0 v 11 a 14 14 90 0 1 -14 14 H 257 a 14 14 90 0 1 -14 -14 V 177.0 H 56" fill="#fddbc7" stroke="#fddbc7" stroke-width="0"/>
	<rect x="243" y="152" width="56" height="50" fill="none" rx="14" stroke="#d6604d" stroke-width="2"/>
	<line x1="243" y1="177" x2="299" y2="177" stroke="#d6604d" stroke-width="1"/>
	<text x="250" y="169.7" fill="#000000" font-family="Verdana" font-size="12">inclure</text>
</g>

<!-- Association posseder -->
<line x1="271" y1="303" x2="392" y2="303" stroke="#d6604d" stroke-width="2"/>
<text x="330" y="320.0" fill="#2166ac" font-family="Verdana" font-size="12">1,1</text>
<line x1="392" y1="177" x2="392" y2="303" stroke="#d6604d" stroke-width="2"/>
<text x="397.0" y="253" fill="#2166ac" font-family="Verdana" font-size="12">0,1</text>
<g id="association-posseder">
	<path d="M 413 278 a 14 14 90 0 1 14 14 V 303 h -70 V 292 a 14 14 90 0 1 14 -14" fill="#f4a582" stroke="#f4a582" stroke-width="0"/>
	<path d="M 427 303.0 v 11 a 14 14 90 0 1 -14 14 H 371 a 14 14 90 0 1 -14 -14 V 303.0 H 70" fill="#fddbc7" stroke="#fddbc7" stroke-width="0"/>
	<rect x="357" y="278" width="70" height="50" fill="none" rx="14" stroke="#d6604d" stroke-width="2"/>
	<line x1="357" y1="303" x2="427" y2="303" stroke="#d6604d" stroke-width="1"/>
	<text x="364" y="295.7" fill="#000000" font-family="Verdana" font-size="12">posseder</text>
</g>

<!-- Entity produit -->
<g id="entity-produit">
	<g id="frame-produit">
		<rect x="353" y="118" width="78" height="25" fill="#92c5de" stroke="#92c5de" stroke-width="0"/>
		<rect x="353" y="143.0" width="78" height="93" fill="#d1e5f0" stroke="#d1e5f0" stroke-width="0"/>
		<rect x="353" y="118" width="78" height="118" fill="none" stroke="#4393c3" stroke-width="2"/>
		<line x1="353" y1="143" x2="431" y2="143" stroke="#4393c3" stroke-width="1"/>
	</g>
	<text x="370" y="135.7" fill="#000000" font-family="Verdana" font-size="12">produit</text>
	<text x="358" y="160.7" fill="#000000" font-family="Verdana" font-size="12">id</text>
	<line x1="358" y1="163" x2="370" y2="163" stroke="#000000" stroke-width="1"/>
	<text x="358" y="177.8" fill="#000000" font-family="Verdana" font-size="12">nom</text>
	<text x="358" y="194.8" fill="#000000" font-family="Verdana" font-size="12">photo</text>
	<text x="358" y="211.8" fill="#000000" font-family="Verdana" font-size="12">description</text>
	<text x="358" y="228.8" fill="#000000" font-family="Verdana" font-size="12">prix</text>
</g>

<!-- Entity ligneCommande -->
<g id="entity-ligneCommande">
	<g id="frame-ligneCommande">
		<rect x="217" y="261" width="108" height="25" fill="#92c5de" stroke="#92c5de" stroke-width="0"/>
		<rect x="217" y="286.0" width="108" height="59" fill="#d1e5f0" stroke="#d1e5f0" stroke-width="0"/>
		<rect x="217" y="261" width="108" height="84" fill="none" stroke="#4393c3" stroke-width="2"/>
		<line x1="217" y1="286" x2="325" y2="286" stroke="#4393c3" stroke-width="1"/>
	</g>
	<text x="222" y="278.7" fill="#000000" font-family="Verdana" font-size="12">ligneCommande</text>
	<text x="222" y="303.8" fill="#000000" font-family="Verdana" font-size="12">id</text>
	<line x1="222" y1="306" x2="234" y2="306" stroke="#000000" stroke-width="1"/>
	<text x="222" y="320.8" fill="#000000" font-family="Verdana" font-size="12">qte</text>
	<text x="222" y="337.8" fill="#000000" font-family="Verdana" font-size="12">prixUnitaire</text>
</g>

<!-- Entity categorie -->
<g id="entity-categorie">
	<g id="frame-categorie">
		<rect x="232" y="26" width="78" height="25" fill="#92c5de" stroke="#92c5de" stroke-width="0"/>
		<rect x="232" y="51.0" width="78" height="59" fill="#d1e5f0" stroke="#d1e5f0" stroke-width="0"/>
		<rect x="232" y="26" width="78" height="84" fill="none" stroke="#4393c3" stroke-width="2"/>
		<line x1="232" y1="51" x2="310" y2="51" stroke="#4393c3" stroke-width="1"/>
	</g>
	<text x="242" y="43.7" fill="#000000" font-family="Verdana" font-size="12">categorie</text>
	<text x="237" y="68.8" fill="#000000" font-family="Verdana" font-size="12">id</text>
	<line x1="237" y1="71" x2="249" y2="71" stroke="#000000" stroke-width="1"/>
	<text x="237" y="85.8" fill="#000000" font-family="Verdana" font-size="12">nom</text>
	<text x="237" y="102.8" fill="#000000" font-family="Verdana" font-size="12">description</text>
</g>

<!-- Entity adresse -->
<g id="entity-adresse">
	<g id="frame-adresse">
		<rect x="12" y="9" width="58" height="25" fill="#92c5de" stroke="#92c5de" stroke-width="0"/>
		<rect x="12" y="34.0" width="58" height="93" fill="#d1e5f0" stroke="#d1e5f0" stroke-width="0"/>
		<rect x="12" y="9" width="58" height="118" fill="none" stroke="#4393c3" stroke-width="2"/>
		<line x1="12" y1="34" x2="70" y2="34" stroke="#4393c3" stroke-width="1"/>
	</g>
	<text x="17" y="26.7" fill="#000000" font-family="Verdana" font-size="12">adresse</text>
	<text x="17" y="51.7" fill="#000000" font-family="Verdana" font-size="12">id</text>
	<line x1="17" y1="54" x2="29" y2="54" stroke="#000000" stroke-width="1"/>
	<text x="17" y="68.8" fill="#000000" font-family="Verdana" font-size="12">numero</text>
	<text x="17" y="85.8" fill="#000000" font-family="Verdana" font-size="12">voie</text>
	<text x="17" y="102.8" fill="#000000" font-family="Verdana" font-size="12">cp</text>
	<text x="17" y="119.8" fill="#000000" font-family="Verdana" font-size="12">ville</text>
</g>

<!-- Entity commande -->
<g id="entity-commande">
	<g id="frame-commande">
		<rect x="105" y="135" width="106" height="25" fill="#92c5de" stroke="#92c5de" stroke-width="0"/>
		<rect x="105" y="160.0" width="106" height="59" fill="#d1e5f0" stroke="#d1e5f0" stroke-width="0"/>
		<rect x="105" y="135" width="106" height="84" fill="none" stroke="#4393c3" stroke-width="2"/>
		<line x1="105" y1="160" x2="211" y2="160" stroke="#4393c3" stroke-width="1"/>
	</g>
	<text x="124" y="152.7" fill="#000000" font-family="Verdana" font-size="12">commande</text>
	<text x="110" y="177.8" fill="#000000" font-family="Verdana" font-size="12">id</text>
	<line x1="110" y1="180" x2="122" y2="180" stroke="#000000" stroke-width="1"/>
	<text x="110" y="194.8" fill="#000000" font-family="Verdana" font-size="12">dateCommande</text>
	<text x="110" y="211.8" fill="#000000" font-family="Verdana" font-size="12">total</text>
</g>

<!-- Entity user -->
<g id="entity-user">
	<g id="frame-user">
		<rect x="12" y="252" width="58" height="25" fill="#92c5de" stroke="#92c5de" stroke-width="0"/>
		<rect x="12" y="277.0" width="58" height="77" fill="#d1e5f0" stroke="#d1e5f0" stroke-width="0"/>
		<rect x="12" y="252" width="58" height="102" fill="none" stroke="#4393c3" stroke-width="2"/>
		<line x1="12" y1="277" x2="70" y2="277" stroke="#4393c3" stroke-width="1"/>
	</g>
	<text x="27" y="269.7" fill="#000000" font-family="Verdana" font-size="12">user</text>
	<text x="17" y="294.7" fill="#000000" font-family="Verdana" font-size="12">id</text>
	<line x1="17" y1="297" x2="29" y2="297" stroke="#000000" stroke-width="1"/>
	<text x="17" y="311.8" fill="#000000" font-family="Verdana" font-size="12">prenom</text>
	<text x="17" y="328.8" fill="#000000" font-family="Verdana" font-size="12">email</text>
	<text x="17" y="345.8" fill="#000000" font-family="Verdana" font-size="12">mdp</text>
</g>
</svg>